<mxfile host="app.diagrams.net" modified="2024-06-04T06:11:32.349Z" agent="Mozilla/5.0 (Macintosh; Intel Mac OS X 10_15_7) AppleWebKit/537.36 (KHTML, like Gecko) Chrome/125.0.0.0 Safari/537.36" etag="d5odniYCeQfQRz3XjvtV" version="24.4.13" type="github">
  <diagram name="Page-1" id="e56a1550-8fbb-45ad-956c-1786394a9013">
    <mxGraphModel dx="1112" dy="672" grid="1" gridSize="10" guides="1" tooltips="1" connect="1" arrows="1" fold="1" page="1" pageScale="1" pageWidth="1100" pageHeight="850" background="none" math="0" shadow="0">
      <root>
        <mxCell id="0" />
        <mxCell id="1" parent="0" />
        <mxCell id="Fs2PFmvLth5XchhP4x7E-1" value="● achieve_id = 成就ID (主鍵，INT)" style="swimlane;fontStyle=1;childLayout=stackLayout;horizontal=1;startSize=26;horizontalStack=0;resizeParent=1;resizeParentMax=0;resizeLast=0;collapsible=1;marginBottom=0;" vertex="1" parent="1">
          <mxGeometry x="120" y="590" width="350" height="208" as="geometry" />
        </mxCell>
        <mxCell id="Fs2PFmvLth5XchhP4x7E-2" value="● elves_id = 精靈ID (外鍵，關聯到 Elves 表，INT)" style="text;strokeColor=none;fillColor=none;align=left;verticalAlign=top;spacingLeft=4;spacingRight=4;overflow=hidden;rotatable=0;points=[[0,0.5],[1,0.5]];portConstraint=eastwest;" vertex="1" parent="Fs2PFmvLth5XchhP4x7E-1">
          <mxGeometry y="26" width="350" height="26" as="geometry" />
        </mxCell>
        <mxCell id="Fs2PFmvLth5XchhP4x7E-3" value="● name = 成就名稱 (VARCHAR(50)，NOT NULL)" style="text;strokeColor=none;fillColor=none;align=left;verticalAlign=top;spacingLeft=4;spacingRight=4;overflow=hidden;rotatable=0;points=[[0,0.5],[1,0.5]];portConstraint=eastwest;" vertex="1" parent="Fs2PFmvLth5XchhP4x7E-1">
          <mxGeometry y="52" width="350" height="26" as="geometry" />
        </mxCell>
        <mxCell id="Fs2PFmvLth5XchhP4x7E-4" value="● description = 成就描述 (VARCHAR(255)，NOT NULL)" style="text;strokeColor=none;fillColor=none;align=left;verticalAlign=top;spacingLeft=4;spacingRight=4;overflow=hidden;rotatable=0;points=[[0,0.5],[1,0.5]];portConstraint=eastwest;" vertex="1" parent="Fs2PFmvLth5XchhP4x7E-1">
          <mxGeometry y="78" width="350" height="26" as="geometry" />
        </mxCell>
        <mxCell id="Fs2PFmvLth5XchhP4x7E-5" value="● unlock_criteria = 解鎖條件 (VARCHAR(255)，NOT NULL)" style="text;strokeColor=none;fillColor=none;align=left;verticalAlign=top;spacingLeft=4;spacingRight=4;overflow=hidden;rotatable=0;points=[[0,0.5],[1,0.5]];portConstraint=eastwest;" vertex="1" parent="Fs2PFmvLth5XchhP4x7E-1">
          <mxGeometry y="104" width="350" height="26" as="geometry" />
        </mxCell>
        <mxCell id="Fs2PFmvLth5XchhP4x7E-6" value="● user_id = 用戶ID (外鍵，關聯到 Users 表，INT)" style="text;strokeColor=none;fillColor=none;align=left;verticalAlign=top;spacingLeft=4;spacingRight=4;overflow=hidden;rotatable=0;points=[[0,0.5],[1,0.5]];portConstraint=eastwest;" vertex="1" parent="Fs2PFmvLth5XchhP4x7E-1">
          <mxGeometry y="130" width="350" height="26" as="geometry" />
        </mxCell>
        <mxCell id="Fs2PFmvLth5XchhP4x7E-7" value="● user_id = 用戶ID (外鍵，關聯到 Users 表，INT)" style="text;strokeColor=none;fillColor=none;align=left;verticalAlign=top;spacingLeft=4;spacingRight=4;overflow=hidden;rotatable=0;points=[[0,0.5],[1,0.5]];portConstraint=eastwest;" vertex="1" parent="Fs2PFmvLth5XchhP4x7E-1">
          <mxGeometry y="156" width="350" height="26" as="geometry" />
        </mxCell>
        <mxCell id="Fs2PFmvLth5XchhP4x7E-8" value="unlocked_at = 解鎖日期 (DATETIME，NOT NULL)" style="text;strokeColor=none;fillColor=none;align=left;verticalAlign=top;spacingLeft=4;spacingRight=4;overflow=hidden;rotatable=0;points=[[0,0.5],[1,0.5]];portConstraint=eastwest;" vertex="1" parent="Fs2PFmvLth5XchhP4x7E-1">
          <mxGeometry y="182" width="350" height="26" as="geometry" />
        </mxCell>
        <mxCell id="Fs2PFmvLth5XchhP4x7E-13" value="● task_id = 任務ID (主鍵，INT)" style="swimlane;fontStyle=1;childLayout=stackLayout;horizontal=1;startSize=26;horizontalStack=0;resizeParent=1;resizeParentMax=0;resizeLast=0;collapsible=1;marginBottom=0;" vertex="1" parent="1">
          <mxGeometry x="510" y="590" width="320" height="156" as="geometry" />
        </mxCell>
        <mxCell id="Fs2PFmvLth5XchhP4x7E-14" value="● task_name = 任務名稱 (VARCHAR(50)，NOT NULL)" style="text;strokeColor=none;fillColor=none;align=left;verticalAlign=top;spacingLeft=4;spacingRight=4;overflow=hidden;rotatable=0;points=[[0,0.5],[1,0.5]];portConstraint=eastwest;" vertex="1" parent="Fs2PFmvLth5XchhP4x7E-13">
          <mxGeometry y="26" width="320" height="26" as="geometry" />
        </mxCell>
        <mxCell id="Fs2PFmvLth5XchhP4x7E-15" value="● description = 描述 (VARCHAR(255))" style="text;strokeColor=none;fillColor=none;align=left;verticalAlign=top;spacingLeft=4;spacingRight=4;overflow=hidden;rotatable=0;points=[[0,0.5],[1,0.5]];portConstraint=eastwest;" vertex="1" parent="Fs2PFmvLth5XchhP4x7E-13">
          <mxGeometry y="52" width="320" height="26" as="geometry" />
        </mxCell>
        <mxCell id="Fs2PFmvLth5XchhP4x7E-16" value="● reward_exp = 獎勵經驗值 (INT，NOT NULL)" style="text;strokeColor=none;fillColor=none;align=left;verticalAlign=top;spacingLeft=4;spacingRight=4;overflow=hidden;rotatable=0;points=[[0,0.5],[1,0.5]];portConstraint=eastwest;" vertex="1" parent="Fs2PFmvLth5XchhP4x7E-13">
          <mxGeometry y="78" width="320" height="26" as="geometry" />
        </mxCell>
        <mxCell id="Fs2PFmvLth5XchhP4x7E-17" value="● user_id = 用戶ID (外鍵，關聯到 Users 表，INT)" style="text;strokeColor=none;fillColor=none;align=left;verticalAlign=top;spacingLeft=4;spacingRight=4;overflow=hidden;rotatable=0;points=[[0,0.5],[1,0.5]];portConstraint=eastwest;" vertex="1" parent="Fs2PFmvLth5XchhP4x7E-13">
          <mxGeometry y="104" width="320" height="26" as="geometry" />
        </mxCell>
        <mxCell id="Fs2PFmvLth5XchhP4x7E-18" value="● completed = 完成日期 (DATETIME，NOT NULL)" style="text;strokeColor=none;fillColor=none;align=left;verticalAlign=top;spacingLeft=4;spacingRight=4;overflow=hidden;rotatable=0;points=[[0,0.5],[1,0.5]];portConstraint=eastwest;" vertex="1" parent="Fs2PFmvLth5XchhP4x7E-13">
          <mxGeometry y="130" width="320" height="26" as="geometry" />
        </mxCell>
        <mxCell id="Fs2PFmvLth5XchhP4x7E-19" value="● elves_id =精靈ID (主鍵，INT)" style="swimlane;fontStyle=1;childLayout=stackLayout;horizontal=1;startSize=26;horizontalStack=0;resizeParent=1;resizeParentMax=0;resizeLast=0;collapsible=1;marginBottom=0;" vertex="1" parent="1">
          <mxGeometry x="130" y="300" width="420" height="260" as="geometry" />
        </mxCell>
        <mxCell id="Fs2PFmvLth5XchhP4x7E-20" value="● user_id = 使用者ID (外鍵，關聯到 Users 表，INT)" style="text;strokeColor=none;fillColor=none;align=left;verticalAlign=top;spacingLeft=4;spacingRight=4;overflow=hidden;rotatable=0;points=[[0,0.5],[1,0.5]];portConstraint=eastwest;" vertex="1" parent="Fs2PFmvLth5XchhP4x7E-19">
          <mxGeometry y="26" width="420" height="26" as="geometry" />
        </mxCell>
        <mxCell id="Fs2PFmvLth5XchhP4x7E-21" value="● elves_name = 精靈暱稱 (VARCHAR(50)，NOT NULL)" style="text;strokeColor=none;fillColor=none;align=left;verticalAlign=top;spacingLeft=4;spacingRight=4;overflow=hidden;rotatable=0;points=[[0,0.5],[1,0.5]];portConstraint=eastwest;" vertex="1" parent="Fs2PFmvLth5XchhP4x7E-19">
          <mxGeometry y="52" width="420" height="26" as="geometry" />
        </mxCell>
        <mxCell id="Fs2PFmvLth5XchhP4x7E-22" value="● type_id = 精靈類型ID (外鍵，關聯到 Elftypes 表)" style="text;strokeColor=none;fillColor=none;align=left;verticalAlign=top;spacingLeft=4;spacingRight=4;overflow=hidden;rotatable=0;points=[[0,0.5],[1,0.5]];portConstraint=eastwest;" vertex="1" parent="Fs2PFmvLth5XchhP4x7E-19">
          <mxGeometry y="78" width="420" height="26" as="geometry" />
        </mxCell>
        <mxCell id="Fs2PFmvLth5XchhP4x7E-23" value="● skin_color = 皮膚顏色 (VARCHAR(20)，NOT NULL)" style="text;strokeColor=none;fillColor=none;align=left;verticalAlign=top;spacingLeft=4;spacingRight=4;overflow=hidden;rotatable=0;points=[[0,0.5],[1,0.5]];portConstraint=eastwest;" vertex="1" parent="Fs2PFmvLth5XchhP4x7E-19">
          <mxGeometry y="104" width="420" height="26" as="geometry" />
        </mxCell>
        <mxCell id="Fs2PFmvLth5XchhP4x7E-24" value="● level = 精靈等級 (外鍵，關聯到 LevelExperience 表， INT，NOT NULL)" style="text;strokeColor=none;fillColor=none;align=left;verticalAlign=top;spacingLeft=4;spacingRight=4;overflow=hidden;rotatable=0;points=[[0,0.5],[1,0.5]];portConstraint=eastwest;" vertex="1" parent="Fs2PFmvLth5XchhP4x7E-19">
          <mxGeometry y="130" width="420" height="26" as="geometry" />
        </mxCell>
        <mxCell id="Fs2PFmvLth5XchhP4x7E-25" value="● experience = 總經驗值 ( INT，NOT NULL)" style="text;strokeColor=none;fillColor=none;align=left;verticalAlign=top;spacingLeft=4;spacingRight=4;overflow=hidden;rotatable=0;points=[[0,0.5],[1,0.5]];portConstraint=eastwest;" vertex="1" parent="Fs2PFmvLth5XchhP4x7E-19">
          <mxGeometry y="156" width="420" height="26" as="geometry" />
        </mxCell>
        <mxCell id="Fs2PFmvLth5XchhP4x7E-26" value="● created_at = 創建日期 (DATETIME，NOT NULL)" style="text;strokeColor=none;fillColor=none;align=left;verticalAlign=top;spacingLeft=4;spacingRight=4;overflow=hidden;rotatable=0;points=[[0,0.5],[1,0.5]];portConstraint=eastwest;" vertex="1" parent="Fs2PFmvLth5XchhP4x7E-19">
          <mxGeometry y="182" width="420" height="26" as="geometry" />
        </mxCell>
        <mxCell id="Fs2PFmvLth5XchhP4x7E-27" value="● level = 等級(主鍵， INT)" style="text;strokeColor=none;fillColor=none;align=left;verticalAlign=top;spacingLeft=4;spacingRight=4;overflow=hidden;rotatable=0;points=[[0,0.5],[1,0.5]];portConstraint=eastwest;" vertex="1" parent="Fs2PFmvLth5XchhP4x7E-19">
          <mxGeometry y="208" width="420" height="26" as="geometry" />
        </mxCell>
        <mxCell id="Fs2PFmvLth5XchhP4x7E-28" value="● nextlevel_experience = 下一集所需經驗值 ( INT，NOT NULL)" style="text;strokeColor=none;fillColor=none;align=left;verticalAlign=top;spacingLeft=4;spacingRight=4;overflow=hidden;rotatable=0;points=[[0,0.5],[1,0.5]];portConstraint=eastwest;" vertex="1" parent="Fs2PFmvLth5XchhP4x7E-19">
          <mxGeometry y="234" width="420" height="26" as="geometry" />
        </mxCell>
        <mxCell id="Fs2PFmvLth5XchhP4x7E-29" value="● accessory_id = 配件ID (主鍵，INT)" style="swimlane;fontStyle=1;childLayout=stackLayout;horizontal=1;startSize=26;horizontalStack=0;resizeParent=1;resizeParentMax=0;resizeLast=0;collapsible=1;marginBottom=0;" vertex="1" parent="1">
          <mxGeometry x="950" y="290" width="320" height="130" as="geometry" />
        </mxCell>
        <mxCell id="Fs2PFmvLth5XchhP4x7E-30" value="● type = 配件類型(VARCHAR(20))" style="text;strokeColor=none;fillColor=none;align=left;verticalAlign=top;spacingLeft=4;spacingRight=4;overflow=hidden;rotatable=0;points=[[0,0.5],[1,0.5]];portConstraint=eastwest;" vertex="1" parent="Fs2PFmvLth5XchhP4x7E-29">
          <mxGeometry y="26" width="320" height="26" as="geometry" />
        </mxCell>
        <mxCell id="Fs2PFmvLth5XchhP4x7E-31" value="● head_accessory_id = 頭部配件ID (INT，NOT NULL)" style="text;strokeColor=none;fillColor=none;align=left;verticalAlign=top;spacingLeft=4;spacingRight=4;overflow=hidden;rotatable=0;points=[[0,0.5],[1,0.5]];portConstraint=eastwest;" vertex="1" parent="Fs2PFmvLth5XchhP4x7E-29">
          <mxGeometry y="52" width="320" height="26" as="geometry" />
        </mxCell>
        <mxCell id="Fs2PFmvLth5XchhP4x7E-32" value="● body_accessory_id = 上身配件ID (INT，NOT NULL)" style="text;strokeColor=none;fillColor=none;align=left;verticalAlign=top;spacingLeft=4;spacingRight=4;overflow=hidden;rotatable=0;points=[[0,0.5],[1,0.5]];portConstraint=eastwest;" vertex="1" parent="Fs2PFmvLth5XchhP4x7E-29">
          <mxGeometry y="78" width="320" height="26" as="geometry" />
        </mxCell>
        <mxCell id="Fs2PFmvLth5XchhP4x7E-33" value="● leg_accessory_id = 下身配件ID (INT，NOT NULL)" style="text;strokeColor=none;fillColor=none;align=left;verticalAlign=top;spacingLeft=4;spacingRight=4;overflow=hidden;rotatable=0;points=[[0,0.5],[1,0.5]];portConstraint=eastwest;" vertex="1" parent="Fs2PFmvLth5XchhP4x7E-29">
          <mxGeometry y="104" width="320" height="26" as="geometry" />
        </mxCell>
        <mxCell id="Fs2PFmvLth5XchhP4x7E-34" value="● elves_id = 精靈ID (外鍵，關聯到 Elves 表，INT)" style="swimlane;fontStyle=1;childLayout=stackLayout;horizontal=1;startSize=26;horizontalStack=0;resizeParent=1;resizeParentMax=0;resizeLast=0;collapsible=1;marginBottom=0;" vertex="1" parent="1">
          <mxGeometry x="560" y="320" width="360" height="52" as="geometry" />
        </mxCell>
        <mxCell id="Fs2PFmvLth5XchhP4x7E-35" value="● accessory_id = 配件ID (外鍵，關聯到 Accessories 表，INT)" style="text;strokeColor=none;fillColor=none;align=left;verticalAlign=top;spacingLeft=4;spacingRight=4;overflow=hidden;rotatable=0;points=[[0,0.5],[1,0.5]];portConstraint=eastwest;" vertex="1" parent="Fs2PFmvLth5XchhP4x7E-34">
          <mxGeometry y="26" width="360" height="26" as="geometry" />
        </mxCell>
      </root>
    </mxGraphModel>
  </diagram>
</mxfile>
